<svg height='100px' width='100px'  fill="#ffffff" xmlns="http://www.w3.org/2000/svg" xmlns:xlink="http://www.w3.org/1999/xlink" version="1.1" x="0px" y="0px" viewBox="0 0 42 42" enable-background="new 0 0 42 42" xml:space="preserve"><path d="M16.314,16.719c0.694-1.386,0.604,0.286-0.406,1.958c1.031-0.029,2.074-0.166,3.105-0.411v-5.537  c-1.275-0.687-2.103-1.986-2.174-3.453c-0.93-0.329-2.261-0.382-3.79,0.844c-2.938,2.355-3.231,2.478-7.638,3.298  c-2.452,0.457-0.17,2.797,3.854,4.2c1.038-0.467,2.233-1.232,2.828-2.421c0.831-1.661,0.537,1.07-1.12,2.929  c1.081,0.268,2.241,0.456,3.438,0.527C15.167,18.19,15.893,17.563,16.314,16.719z"></path><path d="M36.588,13.417c-4.407-0.82-4.7-0.943-7.638-3.298c-1.528-1.226-2.859-1.173-3.789-0.844  c-0.072,1.467-0.898,2.767-2.174,3.453v5.537c1.031,0.246,2.074,0.382,3.105,0.411c-1.01-1.672-1.1-3.344-0.406-1.958  c0.421,0.844,1.146,1.471,1.903,1.933c1.196-0.071,2.356-0.259,3.438-0.527c-1.656-1.858-1.951-4.59-1.12-2.929  c0.595,1.189,1.79,1.955,2.829,2.421C36.759,16.214,39.041,13.874,36.588,13.417z"></path><path d="M24.826,19.393c-0.424-0.161-0.898,0.05-1.063,0.473c-0.165,0.423,0.046,0.9,0.469,1.067  c0.058,0.023,1.419,0.569,1.114,1.431c-0.262,0.741-1.928,1.042-3.41,1.265V12.038c1.263-0.401,2.188-1.571,2.188-2.965  c0-1.723-1.402-3.125-3.125-3.125c-1.723,0-3.125,1.402-3.125,3.125c0,1.395,0.924,2.564,2.188,2.965v11.591  c-1.482-0.223-3.147-0.524-3.41-1.264c-0.303-0.857,1.041-1.402,1.113-1.431c0.424-0.164,0.636-0.64,0.473-1.065  c-0.163-0.425-0.64-0.636-1.065-0.475c-1.012,0.387-2.748,1.622-2.077,3.521c0.37,1.044,1.344,1.579,2.537,1.914  c-0.604,0.5-0.938,1.333-0.847,2.168c0.108,0.993,0.79,1.795,1.822,2.146c0.014,0.005,0.035,0.011,0.05,0.015  c-0.802,0.525-1.343,1.209-1.228,2.125c0.076,0.603,0.411,1.087,0.882,1.48c-0.388,0.093-0.669,0.443-0.636,0.854  c0.034,0.433,0.396,0.76,0.821,0.76c0.021,0,0.044-0.001,0.066-0.003c0.263-0.021,0.824-0.077,1.498-0.198v0.942  c0,0.517,0.419,0.937,0.938,0.937c0.518,0,0.937-0.42,0.937-0.937v-0.942c0.673,0.121,1.234,0.178,1.498,0.198  c0.022,0.002,0.044,0.003,0.066,0.003c0.426,0,0.787-0.327,0.821-0.76c0.033-0.41-0.248-0.761-0.636-0.854  c0.471-0.394,0.806-0.878,0.882-1.48c0.116-0.915-0.426-1.6-1.228-2.125c0.015-0.004,0.035-0.01,0.049-0.015  c1.033-0.351,1.714-1.152,1.823-2.146c0.091-0.835-0.244-1.667-0.848-2.168c1.193-0.334,2.167-0.869,2.537-1.914  C27.574,21.015,25.838,19.78,24.826,19.393z M19.814,9.072c0-0.653,0.531-1.186,1.186-1.186c0.653,0,1.185,0.532,1.185,1.186  S21.653,10.257,21,10.257C20.346,10.257,19.814,9.726,19.814,9.072z M18.427,26.817c-0.033-0.304,0.101-0.63,0.313-0.758  c0.317-0.192,0.785-0.333,1.323-0.449v2.239c-0.079-0.022-0.159-0.045-0.235-0.067c-0.281-0.08-0.519-0.146-0.688-0.204  C18.712,27.434,18.466,27.17,18.427,26.817z M20.063,30.258v1.663c-0.572-0.254-0.956-0.547-0.994-0.847  C19.052,30.946,19.164,30.674,20.063,30.258z M22.931,31.074c-0.038,0.3-0.422,0.593-0.994,0.847v-1.663  C22.836,30.674,22.947,30.946,22.931,31.074z M22.86,27.579c-0.168,0.057-0.407,0.124-0.688,0.204  c-0.075,0.021-0.156,0.044-0.235,0.067V25.61c0.539,0.115,1.006,0.257,1.323,0.449c0.211,0.128,0.345,0.454,0.312,0.758  C23.534,27.17,23.288,27.434,22.86,27.579z"></path></svg>